<svg width="41" height="60" viewBox="0 0 41 60" fill="none" xmlns="http://www.w3.org/2000/svg">
<path d="M5.83333 59.1666C4.22917 59.1666 2.8559 58.5955 1.71354 57.4531C0.571181 56.3107 0 54.9375 0 53.3333V24.1666C0 22.5625 0.571181 21.1892 1.71354 20.0469C2.8559 18.9045 4.22917 18.3333 5.83333 18.3333H35C36.6042 18.3333 37.9774 18.9045 39.1198 20.0469C40.2621 21.1892 40.8333 22.5625 40.8333 24.1666V53.3333C40.8333 54.9375 40.2621 56.3107 39.1198 57.4531C37.9774 58.5955 36.6042 59.1666 35 59.1666H5.83333ZM17.5 54.7916H23.3333V50.4166H17.5V54.7916ZM17.5 47.5H23.3333C23.3333 46.3819 23.7101 45.2639 24.4635 44.1458C25.217 43.0278 26.0556 41.8854 26.9792 40.7187C27.9028 39.5035 28.7413 38.2639 29.4948 37C30.2483 35.7361 30.625 34.375 30.625 32.9166C30.625 30.0972 29.6285 27.691 27.6354 25.6979C25.6424 23.7048 23.2361 22.7083 20.4167 22.7083C17.5972 22.7083 15.191 23.7048 13.1979 25.6979C11.2049 27.691 10.2083 30.0972 10.2083 32.9166C10.2083 34.375 10.5851 35.7361 11.3385 37C12.092 38.2639 12.9306 39.5035 13.8542 40.7187C14.7778 41.8854 15.6163 43.0278 16.3698 44.1458C17.1233 45.2639 17.5 46.3819 17.5 47.5ZM2.91667 13.9583C2.91667 12.743 3.34201 11.71 4.19271 10.8594C5.0434 10.0087 6.07639 9.58331 7.29167 9.58331H33.5417C34.7569 9.58331 35.7899 10.0087 36.6406 10.8594C37.4913 11.71 37.9167 12.743 37.9167 13.9583H2.91667ZM5.83333 5.20831C5.83333 3.99304 6.25868 2.96005 7.10937 2.10935C7.96007 1.25866 8.99306 0.833313 10.2083 0.833313H30.625C31.8403 0.833313 32.8733 1.25866 33.724 2.10935C34.5746 2.96005 35 3.99304 35 5.20831H5.83333Z" fill="#02C39A"/>
</svg>
