<svg width="44" height="59" viewBox="0 0 44 59" fill="none" xmlns="http://www.w3.org/2000/svg">
<path d="M21.8738 58.33C20.2697 58.33 18.8965 57.7589 17.7542 56.6166C16.6119 55.4743 16.0408 54.1011 16.0408 52.497H27.7068C27.7068 54.1011 27.1356 55.4743 25.9933 56.6166C24.851 57.7589 23.4778 58.33 21.8738 58.33ZM10.2078 49.5805V43.7475H33.5397V49.5805H10.2078ZM10.9369 40.831C7.5829 38.8381 4.92159 36.1646 2.95296 32.8106C0.984319 29.4567 0 25.811 0 21.8738C0 15.7977 2.12661 10.6331 6.37984 6.37984C10.6331 2.12661 15.7977 0 21.8738 0C27.9498 0 33.1144 2.12661 37.3677 6.37984C41.6209 10.6331 43.7475 15.7977 43.7475 21.8738C43.7475 25.811 42.7632 29.4567 40.7945 32.8106C38.8259 36.1646 36.1646 38.8381 32.8106 40.831H10.9369ZM12.6868 34.998H31.0607C33.2481 33.4425 34.9372 31.5225 36.1281 29.2379C37.319 26.9533 37.9145 24.4986 37.9145 21.8738C37.9145 17.4018 36.359 13.6103 33.2481 10.4994C30.1372 7.38847 26.3457 5.833 21.8738 5.833C17.4018 5.833 13.6103 7.38847 10.4994 10.4994C7.38847 13.6103 5.833 17.4018 5.833 21.8738C5.833 24.4986 6.42845 26.9533 7.61936 29.2379C8.81026 31.5225 10.4994 33.4425 12.6868 34.998Z" fill="#006BFF"/>
</svg>
