<svg width="30" height="61" viewBox="0 0 30 61" fill="none" xmlns="http://www.w3.org/2000/svg">
<path d="M0.582497 45.7739C0.582497 42.1223 1.68834 38.9018 3.90001 36.1125C6.11169 33.3231 8.89452 31.5734 12.2485 30.8634L12.2485 14.7357C10.9361 14.1271 9.87884 13.1888 9.0768 11.9209C8.27477 10.653 7.87375 9.25834 7.87375 7.73686C7.87375 5.60678 8.57857 3.80637 9.98821 2.3356C11.3979 0.864838 13.1234 0.129456 15.165 0.129456C17.2065 0.129456 18.9321 0.864838 20.3418 2.3356C21.7514 3.80637 22.4562 5.60678 22.4562 7.73686C22.4562 9.25834 22.0552 10.653 21.2532 11.9209C20.4512 13.1888 19.3939 14.1271 18.0815 14.7357V30.8634C21.4355 31.5734 24.2183 33.3231 26.43 36.1125C28.6417 38.9018 29.7475 42.1223 29.7475 45.7739C29.7475 49.9833 28.3257 53.5715 25.4821 56.5383C22.6385 59.5052 19.1995 60.9887 15.165 60.9887C11.1305 60.9887 7.69147 59.5052 4.84788 56.5383C2.00429 53.5715 0.582497 49.9833 0.582497 45.7739ZM6.4155 45.7739C6.4155 48.3097 7.26614 50.4651 8.96743 52.2402C10.6687 54.0152 12.7346 54.9027 15.165 54.9027C17.5954 54.9027 19.6613 54.0152 21.3626 52.2402C23.0639 50.4651 23.9145 48.3097 23.9145 45.7739C23.9145 43.2381 23.0639 41.0826 21.3626 39.3076C19.6613 37.5325 17.5954 36.645 15.165 36.645C12.7346 36.645 10.6687 37.5325 8.96743 39.3076C7.26614 41.0826 6.4155 43.2381 6.4155 45.7739Z" fill="#E24E1B"/>
</svg>
