<svg width="50" height="50" viewBox="0 0 50 50" fill="none" xmlns="http://www.w3.org/2000/svg">
<mask id="mask0_354_77" style="mask-type:alpha" maskUnits="userSpaceOnUse" x="0" y="0" width="50" height="50">
<rect width="50" height="50" fill="#D9D9D9"/>
</mask>
<g mask="url(#mask0_354_77)">
<path d="M37.3596 41.4464L29.7075 33.8339L37.3596 26.2219L39.5351 28.4173L35.6929 32.2719H44.7913V35.3964H35.6929L39.5351 39.2506L37.3596 41.4464ZM8.97415 40.6251C7.92172 40.6251 7.03092 40.2605 6.30176 39.5313C5.57259 38.8022 5.20801 37.9114 5.20801 36.8589V30.8094C5.20801 29.757 5.57259 28.8662 6.30176 28.137C7.03092 27.4079 7.92172 27.0433 8.97415 27.0433H21.4137C22.4662 27.0433 23.357 27.4079 24.0861 28.137C24.8153 28.8662 25.1799 29.757 25.1799 30.8094V36.8589C25.1799 37.9114 24.8153 38.8022 24.0861 39.5313C23.357 40.2605 22.4662 40.6251 21.4137 40.6251H8.97415ZM12.6398 23.7579L10.4643 21.5626L14.3064 17.7084H5.20801V14.5834H14.3064L10.4643 10.7292L12.6398 8.55371L20.2919 16.1459L12.6398 23.7579ZM28.5856 22.9568C27.5332 22.9568 26.6424 22.5923 25.9132 21.8631C25.184 21.1339 24.8195 20.2431 24.8195 19.1907V13.1412C24.8195 12.0888 25.184 11.198 25.9132 10.4688C26.6424 9.73965 27.5332 9.37507 28.5856 9.37507H41.0252C42.0776 9.37507 42.9684 9.73965 43.6976 10.4688C44.4268 11.198 44.7913 12.0888 44.7913 13.1412V19.1907C44.7913 20.2431 44.4268 21.1339 43.6976 21.8631C42.9684 22.5923 42.0776 22.9568 41.0252 22.9568H28.5856Z" fill="white"/>
</g>
</svg>
