<svg width="1032" height="387" viewBox="0 0 1032 387" fill="none" xmlns="http://www.w3.org/2000/svg">
<path fill-rule="evenodd" clip-rule="evenodd" d="M1131.67 138.229C1131.88 138.134 1132.09 138.039 1132.3 137.945C1133.13 139.953 1135.87 141.02 1135.55 143.595C1135.26 143.74 1134.97 143.886 1134.68 144.031L1131.67 138.229ZM1145.36 158.558C1145.64 158.441 1145.91 158.325 1146.19 158.209C1147.46 160.527 1148.72 162.846 1149.99 165.164C1149.79 165.272 1149.6 165.38 1149.4 165.488C1148.41 162.974 1145.3 161.661 1145.36 158.558ZM1110.97 180.27C1110.7 177.338 1110.47 174.849 1110.17 171.586C1113.69 176.689 1113.69 176.689 1110.97 180.27ZM1234.94 174.841C1235.16 177.706 1235.34 180.048 1235.53 182.39C1235.29 182.451 1235.05 182.511 1234.81 182.572C1233.94 180.591 1233.06 178.61 1232.12 176.458C1233.05 175.923 1233.79 175.498 1234.94 174.841ZM1218.5 205.034C1215.88 199.133 1215.62 198.442 1218.5 195.49V205.034ZM1162.63 204.496L1163.19 204.451C1163.72 211.664 1164.25 218.876 1164.77 226.089C1164.44 226.112 1164.1 226.136 1163.76 226.16C1163.38 218.938 1163.01 211.717 1162.63 204.496ZM1125.07 126.212C1123.1 124.131 1121.42 122.416 1119.82 120.619C1119.5 120.252 1119.52 119.579 1119.38 119.047C1119.95 119.039 1120.54 118.909 1121.08 119.044C1124.57 119.929 1125.15 122.617 1125.07 126.212ZM1163.57 229.118C1163.93 229.138 1164.28 229.159 1164.63 229.179C1164.16 236.651 1163.69 244.123 1163.21 251.596C1162.98 251.582 1162.74 251.569 1162.51 251.555C1162.86 244.076 1163.22 236.597 1163.57 229.118ZM1106.33 144.039V155.463C1104.54 151.676 1101.9 147.895 1106.33 144.039ZM1124.26 118.173C1122.84 117.543 1121.74 117.057 1120.52 116.517C1121.76 113.616 1122.9 110.94 1124.26 107.749V118.173ZM1146.75 152.529C1146.41 152.718 1146.08 152.907 1145.74 153.096C1143.57 149.92 1141.34 146.782 1139.31 143.52C1139.05 143.102 1139.83 142.036 1140.41 140.554C1142.82 145.101 1144.78 148.815 1146.75 152.529ZM1172.38 283.487C1172.26 275.389 1174.43 268.743 1177.59 267.649C1175.79 273.102 1174.09 278.294 1172.38 283.487ZM1143.98 156.923C1143.69 156.98 1143.4 157.035 1143.11 157.092C1141.02 153.937 1138.88 150.814 1136.89 147.595C1136.54 147.024 1136.84 146.05 1136.84 145.262L1137.71 145.11C1139.84 148.339 1142.01 151.541 1144.05 154.827C1144.36 155.322 1144.02 156.215 1143.98 156.923ZM1148.34 310.602C1147.05 313.04 1146.13 315.085 1144.91 316.93C1144.49 317.571 1143.16 318.177 1142.54 317.962C1141.94 317.757 1141.38 316.458 1141.4 315.651C1141.42 313.983 1141.85 312.323 1142.12 310.602H1148.34ZM1115.13 119.261C1115.54 119.488 1115.96 119.715 1116.38 119.941C1113.86 124.853 1111.35 129.766 1108.84 134.678C1109.35 128.763 1110.21 123.027 1115.13 119.261ZM1191.27 247.944C1191.09 247.896 1190.92 247.848 1190.75 247.8V235.533C1192.58 235.074 1194.26 234.651 1196.06 234.199C1194.43 238.862 1192.85 243.403 1191.27 247.944ZM841.927 147.331C841.898 154.215 840.305 160.853 838.811 167.506C839.089 160.661 838.17 153.626 841.927 147.331ZM1169.31 122.455V137.262C1163.89 133.697 1164.05 126.985 1169.31 122.455ZM1094.91 134.327C1095.14 134.253 1095.37 134.179 1095.6 134.104C1097.06 137.733 1098.57 141.343 1099.96 144.998C1101.27 148.417 1100.91 149.585 1097.93 152.241C1096.91 146.197 1095.91 140.262 1094.91 134.327ZM1103.32 189.148C1106.6 195.975 1101.59 200.808 1100.87 206.822C1096.78 199.971 1101.28 195.033 1103.32 189.148ZM1106.41 190.494C1106.1 190.48 1105.78 190.467 1105.47 190.454C1105.44 187.504 1105.2 184.539 1105.42 181.608C1105.85 175.945 1106.54 170.301 1106.96 166.243C1107.39 170.461 1107.83 176.327 1108.65 182.136C1109.12 185.408 1107.7 187.869 1106.41 190.494ZM1242.73 187.616C1242.52 187.504 1242.3 187.393 1242.09 187.282V173.453C1247.32 174.652 1248.4 176.626 1246.57 180.303C1245.34 182.766 1244.02 185.18 1242.73 187.616ZM1137.24 140.768C1128.4 130.199 1127.51 128.67 1127.69 123.603C1131.29 127.94 1134.6 132.501 1138.01 136.992C1139.2 138.571 1139.02 139.706 1137.24 140.768ZM1181.49 154.873C1178.8 152.334 1176.71 150.065 1174.31 148.191C1171.85 146.273 1171.5 143.803 1171.46 140.682C1174.68 142.506 1177.67 144.156 1180.6 145.909C1181.04 146.176 1181.43 146.916 1181.45 147.453C1181.55 149.777 1181.49 152.106 1181.49 154.873ZM1183.88 147.726C1186.19 149.683 1188.08 151.168 1189.82 152.818C1190.27 153.251 1190.51 154.249 1190.38 154.899C1189.84 157.687 1189.13 160.443 1188.47 163.225C1182.39 159.64 1183.79 153.898 1183.88 147.726ZM1109.29 189.918C1111.48 202.953 1113.57 215.427 1115.66 227.9C1115.18 227.245 1114.88 226.533 1114.7 225.793C1112.36 216.49 1110.15 207.151 1107.64 197.895C1106.83 194.923 1107.84 192.715 1109.29 189.918ZM1192.38 155.527C1196.63 161.504 1197.68 167.418 1197.52 174.517C1194.9 171.47 1192.78 169.059 1190.74 166.575C1190.4 166.154 1190.23 165.378 1190.33 164.836C1190.9 161.955 1191.58 159.097 1192.38 155.527ZM1099.67 222.99C1099.92 223.009 1100.16 223.027 1100.4 223.045C1100.7 235.379 1101 247.712 1101.31 260.046C1098.5 254.045 1097.35 234.354 1099.67 222.99ZM1018.04 254.139C1017.29 238.531 1016.58 223.736 1015.87 208.941C1019.26 218.953 1020.66 247.436 1018.04 254.139ZM1140.59 308.093C1138.92 307.422 1136.57 307.195 1136.18 306.201C1134.22 301.191 1132.77 295.98 1131.13 290.839C1133.07 292.445 1134.41 294.315 1136.1 295.769C1137.79 297.216 1139.83 298.244 1141.9 299.573C1141.5 302.157 1141.08 304.913 1140.59 308.093ZM1142.49 307.965C1142.87 305.358 1143.16 303.041 1143.58 300.751C1143.68 300.255 1144.28 299.465 1144.64 299.469C1148.84 299.518 1151.54 296.959 1154.2 294.119C1153.23 297.659 1152.13 301.084 1150.9 304.457C1149.53 308.197 1149.01 308.485 1144.94 308.296C1144.23 308.263 1143.52 308.108 1142.49 307.965ZM1172.8 150.617C1173.01 150.392 1173.21 150.167 1173.42 149.942C1175.89 152.658 1178.36 155.365 1180.79 158.106C1180.99 158.334 1181.04 158.798 1181 159.133C1180.35 164.11 1179.67 169.085 1179 174.06C1178.77 174.065 1178.54 174.07 1178.31 174.075C1176.47 166.256 1174.64 158.436 1172.8 150.617ZM1066.22 237.625C1065.91 237.492 1065.6 237.359 1065.3 237.227L1069.66 214.503C1069.93 214.545 1070.21 214.586 1070.48 214.627C1071.39 219.144 1072.35 223.652 1073.18 228.185C1073.35 229.085 1073.36 230.389 1072.84 230.972C1070.76 233.304 1068.45 235.426 1066.22 237.625ZM1104.13 181.222C1103.68 179.949 1103.44 179.465 1103.34 178.954C1102.01 172.503 1100.92 165.991 1099.29 159.617C1098.38 156.079 1099.86 153.832 1101.97 151.28C1104.78 161.021 1105.77 170.629 1104.13 181.222ZM1218.01 224.171C1215.48 220.371 1213.03 216.728 1210.63 213.052C1210.37 212.663 1210.19 211.999 1210.34 211.611C1211.57 208.532 1212.89 205.489 1214.32 202.107C1218.43 210.13 1219.01 213.718 1218.01 224.171ZM993.425 173.359C992.618 165.809 992.069 158.218 990.925 150.719C989.946 144.307 988.26 138.003 986.962 131.635C986.831 130.99 987.222 130.237 987.371 129.534C988.02 129.882 988.908 130.072 989.264 130.614C989.844 131.497 990.122 132.593 990.451 133.625C994.603 146.65 993.699 160.086 993.425 173.359ZM1187.65 269.805C1187.27 270.108 1186.89 270.412 1186.51 270.715C1185.43 269.307 1184.45 267.803 1183.24 266.513C1181.36 264.508 1181.13 262.453 1182.08 259.884C1183.39 256.332 1184.33 252.646 1185.44 249.019C1186.04 247.042 1186.65 245.069 1187.26 243.095C1187.39 243.138 1187.52 243.18 1187.65 243.222V269.805ZM1194.87 101.064C1192.7 105.24 1183.77 111.351 1173.62 115.597C1175.89 107.082 1186.96 99.5105 1194.87 101.064ZM1219.74 239.587C1220.31 240.182 1220.59 240.336 1220.62 240.535C1222.24 249.335 1223.84 258.137 1225.39 266.947C1225.47 267.412 1225.29 268.079 1224.98 268.432C1223.39 270.232 1221.72 271.959 1219.74 274.079V239.587ZM1183.74 161.412C1185.1 163.983 1188.15 165.174 1187.56 168.614C1186.2 176.451 1184.91 184.3 1183.48 192.803C1182.23 188.261 1181.11 184.293 1180.07 180.302C1179.92 179.737 1180.11 179.058 1180.24 178.449C1181.35 172.961 1182.49 167.478 1183.74 161.412ZM1171.92 119.994C1179.71 126.776 1180.69 135.471 1181.47 144.914C1178.08 143.063 1175.14 141.51 1172.26 139.839C1171.72 139.523 1171.16 138.772 1171.09 138.169C1170.45 132.303 1170.4 126.451 1171.92 119.994ZM1239.14 170.603C1236.46 171.621 1233.95 172.575 1230.69 173.815C1229.78 168.257 1228.65 162.803 1228.13 157.291C1227.99 155.788 1229.68 154.113 1230.54 152.517C1232.02 153.516 1233.92 154.213 1234.9 155.573C1238.16 160.049 1238.57 165.432 1239.14 170.603ZM1238.45 173.306C1238.87 173.49 1239.3 173.675 1239.72 173.859C1239.72 178.728 1239.81 183.6 1239.63 188.463C1239.6 189.234 1238.48 190.282 1237.63 190.654C1232.07 193.083 1226.54 192.25 1220.42 190.147C1223.57 185.945 1226.48 182.062 1229.58 177.936C1231.18 180.723 1232.34 182.868 1233.65 184.915C1234.03 185.517 1234.85 185.843 1235.47 186.295C1235.84 185.549 1236.45 184.829 1236.53 184.053C1236.82 181.266 1236.85 178.45 1237.17 175.668C1237.27 174.841 1238.01 174.091 1238.45 173.306ZM1029.28 196.367C1029.09 196.444 1028.9 196.521 1028.71 196.598C1027.78 194.612 1026.01 192.608 1026.05 190.645C1026.37 176.519 1026.95 162.395 1027.69 148.284C1027.9 144.307 1028.9 140.373 1029.53 136.419C1029.79 136.454 1030.05 136.49 1030.31 136.526C1029.97 156.473 1029.63 176.42 1029.28 196.367ZM1021.82 231.866C1021.62 231.883 1021.42 231.9 1021.22 231.917C1019.89 220.788 1018.62 209.652 1017.19 198.536C1016.72 194.919 1016.22 191.398 1018.62 187.856C1021.13 190.317 1024.09 192.245 1023.83 196.415C1023.57 200.566 1023.61 204.736 1023.37 208.888C1022.91 216.551 1022.34 224.207 1021.82 231.866ZM1222.86 305.847C1222.23 303.976 1221.58 302.759 1221.43 301.481C1220.63 294.857 1219.86 288.225 1219.29 281.577C1219.12 279.56 1218.52 277.279 1221 275.782C1222.76 274.719 1224.23 273.158 1225.97 271.697C1227.67 283.345 1227.64 294.432 1222.86 305.847ZM1072.59 87.7867C1078.22 88.8748 1082.8 91.1331 1087.09 94.0128C1087.54 94.314 1087.85 95.0061 1087.99 95.5736C1089.8 102.962 1091.27 110.399 1090.79 118.077C1084.81 108.123 1078.83 98.1701 1072.59 87.7867ZM1114.29 14.9514C1120.53 19.8303 1140.23 44.9346 1142.5 50.8351C1139 50.3777 1135.53 49.8211 1132.04 49.52C1130.61 49.3964 1130.2 48.8855 1129.73 47.5551C1127.49 41.2658 1125.36 34.9047 1122.55 28.8664C1120.33 24.0894 1117.18 19.7453 1114.29 14.9514ZM1097.03 158.929C1098.67 166.695 1099.73 173.967 1101.83 180.924C1103.66 186.989 1101.06 191.515 1098.68 196.504C1095.86 187.955 1093.11 179.652 1090.4 171.337C1090.25 170.884 1090.29 170.219 1090.52 169.818C1092.56 166.329 1094.66 162.877 1097.03 158.929ZM906.861 104.156C907.274 104.189 907.688 104.223 908.103 104.255C910.325 124.7 912.548 145.146 914.771 165.591C914.506 165.63 914.242 165.67 913.978 165.71C913.869 165.391 913.75 165.077 913.656 164.755C910.65 154.399 907.64 144.044 904.656 133.681C904.459 132.995 904.358 132.245 904.391 131.533C904.675 125.373 904.886 119.205 905.362 113.059C905.593 110.07 906.345 107.122 906.861 104.156ZM1214.56 187.153C1214.28 187.323 1213.99 187.493 1213.71 187.662C1213.09 186.653 1212.12 185.713 1211.91 184.625C1210.63 178.062 1209.2 171.502 1208.47 164.869C1207.73 158.101 1207.93 151.269 1211.03 144.917C1211.49 143.957 1212.2 143.114 1213.08 141.794C1217.94 157.248 1217.6 172.16 1214.56 187.153ZM811.424 237.703C811.449 238.015 811.544 238.454 811.507 238.882C810.222 253.62 808.385 268.269 803.947 282.45C803.198 284.842 802.015 287.131 800.766 289.315C800.317 290.1 799.082 290.435 798.206 290.975C797.726 290.148 796.93 289.36 796.82 288.486C796.223 283.726 795.737 278.948 795.369 274.164C795.312 273.428 795.878 272.433 796.463 271.888C801.377 267.315 804.604 261.671 806.594 255.374C808.441 249.532 809.846 243.548 811.424 237.703ZM1130.87 84.9212C1132.7 74.0444 1132.87 63.1889 1130.78 51.688C1135.03 52.3475 1138.85 52.8327 1142.62 53.6065C1143.54 53.7955 1144.61 54.7692 1145.03 55.6563C1147.23 60.3228 1145.64 64.546 1142.94 68.3972C1139.06 73.923 1134.98 79.3099 1130.87 84.9212ZM1067.5 83.6871C1067.28 83.9861 1067.06 84.284 1066.84 84.5824C1063.7 84.5824 1060.55 84.7224 1057.42 84.5557C1048.47 84.0819 1043.68 79.9001 1041.9 71.1287C1041.58 69.5363 1041.4 67.9064 1041.27 66.2847C1040.97 62.4803 1043.63 60.2954 1047.22 61.665C1049.2 62.4166 1051.31 63.5395 1052.64 65.1089C1057.75 71.1673 1062.57 77.4735 1067.5 83.6871ZM1189.33 168.624C1191.54 171.095 1192.99 173.097 1194.82 174.664C1197.25 176.748 1197.75 179.187 1197.26 182.153C1195.8 191.094 1194.51 200.064 1192.96 208.989C1192.2 213.369 1191.02 217.674 1190.03 222.013C1188.55 216.246 1187.46 210.59 1186.46 204.919C1186.04 202.53 1185.28 200.055 1185.54 197.714C1186.59 188.275 1187.96 178.874 1189.33 168.624ZM1142.32 138.113C1146.41 134.018 1150.35 129.621 1154.79 125.81C1157.61 123.382 1161.11 121.678 1164.46 119.946C1165.72 119.295 1167.41 119.481 1168.66 119.318C1166.87 123.14 1164.95 126.522 1163.68 130.136C1162.04 134.854 1162.16 135.119 1166.54 137.611C1169.2 139.128 1170.27 140.976 1169.57 144.245C1160.58 137.881 1153.97 141.752 1148.44 149.699C1146.34 145.738 1144.49 142.234 1142.32 138.113ZM1239.29 193.097C1239.09 194.916 1238.98 196.517 1238.75 198.099C1237.46 206.689 1236.26 215.303 1232.21 223.173C1230.88 225.761 1230.33 225.961 1228.34 223.849C1223.67 218.89 1219.91 213.576 1220.62 206.126C1221.02 201.943 1220.69 197.69 1220.69 193.244C1227.05 194.829 1233.04 195.202 1239.29 193.097ZM1113.1 116.642C1111.46 119.502 1109.64 121.682 1108.92 124.18C1107.85 127.882 1107.28 131.792 1107.01 135.648C1106.75 139.45 1104.34 141.921 1102.66 145.501C1102.19 144.207 1101.92 143.636 1101.77 143.036C1098.71 130.932 1095.55 118.85 1092.69 106.699C1092.09 104.161 1092.61 101.363 1092.61 98.6847C1092.85 98.5671 1093.09 98.4494 1093.34 98.3313C1100.01 104.519 1106.69 110.706 1113.1 116.642ZM1209.31 184.053C1209.17 184.224 1209.03 184.394 1208.89 184.565C1206.48 182.562 1204.09 180.523 1201.64 178.571C1200.11 177.355 1199.48 175.959 1199.5 173.924C1199.57 167.672 1198.58 161.54 1194.99 156.294C1193.4 153.97 1193.29 152.085 1194.23 149.623C1196.79 142.884 1199.85 136.454 1204.79 131.09C1206.91 128.793 1207.75 128.823 1209.23 131.472C1210.24 133.285 1211.01 135.232 1211.9 137.11C1212.56 138.484 1212.12 139.471 1211.31 140.756C1209.68 143.326 1208.13 146.056 1207.2 148.932C1205.21 155.088 1205.5 161.474 1206.42 167.784C1207.21 173.232 1208.33 178.632 1209.31 184.053ZM1128.18 188.825C1122.37 186.591 1120.12 181.971 1117.17 177.994C1116.27 176.779 1116.25 175.845 1117.08 174.606C1121.05 168.66 1124.93 162.65 1128.9 156.698C1130.64 154.074 1132.52 151.533 1134.43 148.812C1136.67 152.23 1138.67 155.458 1140.86 158.54C1141.79 159.839 1141.76 160.788 1141.11 162.196C1138.35 168.184 1135.86 174.296 1133.06 180.263C1131.66 183.242 1129.8 186.005 1128.18 188.825ZM889.654 318.084C880.907 313.758 864.963 277.953 866.285 266.576C866.559 266.917 866.794 267.174 866.991 267.46C874.167 277.837 882.505 287.07 892.995 294.241C893.646 294.685 894.084 296.054 893.967 296.902C893.418 300.849 892.712 304.778 891.918 308.685C891.296 311.749 890.461 314.77 889.654 318.084ZM1199.53 179.926C1202.65 182.411 1205.34 184.656 1208.14 186.761C1211.14 189.018 1213 194.467 1212.2 198.224C1209.86 209.24 1203.88 218.583 1198.48 228.175C1197.52 229.892 1195.66 231.21 1193.98 232.372C1193.27 232.862 1191.95 232.47 1190.91 232.479C1190.9 231.645 1190.71 230.76 1190.92 229.984C1195.29 213.699 1198.71 197.249 1199.53 179.926ZM1178.59 264.14C1178.23 264.099 1177.8 264.098 1177.41 263.998C1173.62 263.044 1173.65 263.044 1172.75 266.966C1171.35 273.051 1170.11 279.18 1168.46 285.195C1166.67 291.687 1164.29 297.997 1159.24 302.781C1157.57 304.366 1155.51 305.535 1153.4 307.052C1159.62 283.715 1164.9 260.869 1166.46 237.785C1170.38 246.31 1174.46 255.163 1178.59 264.14ZM1157.57 215.605C1160.17 219.545 1162.01 222.921 1161.51 227.237C1161.13 230.555 1161.38 233.943 1161.11 237.28C1160.01 251.003 1158.89 264.724 1157.63 278.432C1157.13 283.925 1155.44 289.09 1151.89 293.447C1149.96 295.811 1147.59 297.441 1144.04 297.159C1148.54 270.02 1153 243.154 1157.57 215.605ZM1088.99 172.463C1089.41 173.447 1089.67 173.912 1089.81 174.41C1091.93 181.897 1093.97 189.406 1096.17 196.868C1096.84 199.11 1096.33 200.835 1094.98 202.624C1089.79 209.496 1084.69 216.444 1079.52 223.334C1078.35 224.899 1077.01 226.344 1075.38 228.283C1074.04 221.732 1072.81 215.742 1071.61 209.744C1071.53 209.326 1071.64 208.831 1071.78 208.408C1075.85 195.835 1081.84 184.184 1088.99 172.463ZM1170.79 185.682C1166.97 185.731 1158.61 178.862 1157.17 174.592C1154.84 167.651 1152.41 160.742 1150.1 153.793C1149.86 153.067 1149.84 151.889 1150.26 151.386C1152.01 149.322 1153.76 147.165 1155.89 145.548C1159.91 142.499 1166.8 143.518 1170.01 147.352C1170.33 147.743 1170.52 148.302 1170.64 148.814C1172.79 158.437 1174.91 168.069 1177.07 177.692C1177.84 181.152 1174.35 185.637 1170.79 185.682ZM1118.1 122.012C1122.59 126.771 1127.54 130.95 1129.09 137.62C1129.41 139.002 1130.03 140.428 1130.88 141.554C1133.51 145.028 1132.58 147.716 1130.13 151.047C1124.74 158.384 1119.9 166.131 1114.59 174.094C1112.54 169.542 1109.3 165.89 1109.06 160.783C1108.81 155.539 1108.18 150.315 1107.82 145.076C1107.72 143.559 1107.49 141.78 1108.13 140.53C1111.27 134.334 1114.69 128.276 1118.1 122.012ZM796.191 269.563C795.878 269.423 795.566 269.283 795.254 269.143C795.202 268.465 795.127 267.788 795.102 267.109C794.382 247.317 795.432 227.629 798.734 208.092C799.578 203.102 800.721 198.159 801.878 193.23C802.07 192.41 803.032 191.203 803.659 191.191C804.547 191.173 805.88 191.882 806.273 192.659C807.321 194.732 808.476 196.959 808.684 199.208C809.434 207.307 810.34 215.45 810.205 223.56C810.001 235.758 807.948 247.757 802.729 258.93C800.979 262.675 798.394 266.03 796.191 269.563ZM1083.25 317.158C1080.17 316.372 1079.21 314.217 1078.35 312.211C1068.98 290.464 1063.78 267.892 1065.13 244.059C1065.17 243.385 1065.3 242.503 1065.73 242.098C1068.49 239.543 1071.34 237.095 1074.44 234.361C1078.55 261.891 1082.94 289.066 1083.25 317.158ZM844.492 153.002C851.247 169.157 854.03 186.151 856.229 203.266C858.434 220.426 860.512 237.602 862.645 254.772C861.523 253.864 860.89 252.802 860.345 251.696C851.733 234.227 845.221 216.038 841.351 196.912C839.451 187.527 838.219 178.292 841.334 168.819C843.002 163.749 843.478 158.287 844.492 153.002ZM1140.48 320.536C1142.24 323.086 1143.25 322.209 1144.18 320.999C1145.45 319.35 1146.92 317.801 1147.9 315.99C1149.99 312.104 1152.35 308.771 1157.03 307.627C1158.5 307.266 1159.85 305.998 1161.02 304.893C1162.85 303.171 1164.47 301.233 1166.41 299.131C1166.23 299.917 1166.19 300.438 1165.99 300.891C1163.91 305.702 1161.84 310.519 1159.7 315.303C1155.9 323.789 1151.39 332.027 1148.39 340.785C1144.32 352.661 1147.41 360.993 1157.17 368.853C1157.36 369.009 1157.48 369.263 1158.05 370.045C1154.72 373.797 1151.62 377.956 1147.85 381.368C1143.19 385.573 1138.6 384.061 1137.12 377.941C1136.24 374.299 1135.97 370.406 1136.1 366.648C1136.31 360.139 1136.96 353.638 1137.59 347.15C1138.43 338.605 1139.44 330.076 1140.48 320.536ZM1249.67 181.02C1250.03 182.874 1250.49 184.716 1250.73 186.586C1252.07 197.191 1250.41 207.542 1247.96 217.816C1244.1 234.06 1238.31 249.497 1228.85 263.39C1228.49 263.917 1228.01 264.362 1227.32 265.155C1227.09 263.795 1226.97 262.904 1226.79 262.026C1224.82 252.367 1222.59 242.753 1220.98 233.034C1220.12 227.813 1220.32 222.415 1220.05 217.096C1223.14 220.566 1225.62 223.989 1228.1 227.414C1229.36 229.159 1230.71 229.383 1231.87 227.411C1233.7 224.308 1235.76 221.274 1237.06 217.951C1240.07 210.273 1240.56 202.074 1241.32 193.952C1241.4 193.108 1241.55 191.929 1242.12 191.526C1245.76 188.916 1247.79 185.272 1249.67 181.02ZM1159.94 182.257C1162.72 183.91 1165.71 186.177 1169.06 187.547C1173.01 189.158 1176.17 187.131 1178.53 183.166C1180.82 192.144 1183.04 200.244 1182.85 208.943C1182.72 214.739 1183.3 220.873 1185.17 226.299C1186.98 231.561 1187.05 236.205 1185.29 241.188C1185.11 241.699 1185 242.234 1184.85 242.757C1183.19 248.597 1181.54 254.438 1179.73 260.821C1178.92 259.497 1178.38 258.778 1178.01 257.982C1174.66 250.86 1171.22 243.781 1168.1 236.562C1167.13 234.322 1166.85 231.709 1166.63 229.234C1165.73 219.24 1165.33 209.189 1164.06 199.247C1163.3 193.318 1161.26 187.555 1159.94 182.257ZM1059.71 331.101C1058.39 328.916 1057.37 327.332 1056.45 325.689C1047.66 309.927 1042.68 292.83 1039.06 275.29C1035.44 257.765 1033.79 239.983 1032.53 222.162C1032.24 218.103 1032.11 214.034 1031.9 209.969C1045.45 233.328 1062.87 309.625 1059.71 331.101ZM1051.42 154.931C1051.65 154.933 1051.88 154.935 1052.11 154.937C1052.81 156.39 1053.55 157.827 1054.21 159.298C1061.21 174.828 1065.27 191.255 1068.91 207.805C1069.11 208.73 1068.97 209.781 1068.79 210.733C1067.01 219.78 1065.2 228.822 1063.34 237.853C1063.16 238.753 1062.78 239.86 1062.12 240.373C1059.15 242.654 1055.4 242.083 1053.31 238.965C1052.27 237.413 1051.33 235.611 1051 233.803C1049.76 226.867 1048.03 219.9 1047.87 212.912C1047.61 201.789 1048.25 190.629 1048.93 179.51C1049.42 171.296 1050.56 163.122 1051.42 154.931ZM1204.69 280.435C1200.62 280.403 1196.84 279.281 1193.73 276.838C1191.94 275.441 1189.59 273.092 1189.68 271.284C1190 265.135 1189.77 258.872 1192.43 252.939C1197.53 241.547 1202.2 229.96 1207.17 218.504C1208.36 215.746 1210.02 215.69 1211.65 218.245C1212.97 220.296 1214.23 222.445 1215.08 224.714C1216.25 227.883 1217.86 231.214 1217.82 234.458C1217.68 246.508 1216.91 258.548 1216.46 270.595C1216.2 277.418 1215.72 278.137 1208.97 279.798C1207.57 280.141 1206.12 280.229 1204.69 280.435ZM1070.46 204.681C1070.08 203.295 1069.77 202.303 1069.52 201.297C1065.64 185.554 1060.9 170.076 1054.43 155.203C1052.87 151.61 1052.25 148.33 1053.17 144.562C1054.23 140.169 1054.84 135.664 1055.96 131.288C1056.75 128.225 1058.34 127.752 1061.03 129.364C1062.03 129.966 1062.99 130.684 1063.85 131.472C1075.11 141.734 1082.09 154.749 1087.59 168.683C1087.87 169.397 1087.45 170.57 1087.03 171.352C1083.87 177.254 1080.46 183.03 1077.45 189.01C1074.96 193.967 1072.91 199.148 1070.46 204.681ZM1132.83 306.08C1129.71 304.398 1126.98 303.161 1124.5 301.548C1113.88 294.663 1107.74 284.476 1103.77 272.788C1103.14 270.945 1102.74 268.903 1102.8 266.97C1103.28 250.553 1103.49 234.139 1101.58 217.798C1100.79 211.043 1103.8 205.329 1105.6 199.205C1106.1 200.049 1106.33 200.879 1106.53 201.716C1113.37 229.957 1120.15 258.214 1127.08 286.431C1128.65 292.812 1130.76 299.059 1132.83 306.08ZM1159.35 367.029C1152.87 362.402 1149.12 356.654 1149.44 348.811C1149.77 340.66 1152.97 333.303 1156.56 326.185C1163.17 313.078 1169.23 299.758 1173.8 285.786C1175.73 279.882 1177.73 274.002 1179.84 267.671C1181.33 268.734 1182.55 269.612 1183.78 270.474C1186.55 272.425 1187.42 274.92 1187.03 278.395C1185 296.265 1181.54 313.802 1175.69 330.84C1171.43 343.281 1166.3 355.326 1159.35 367.029ZM1085.14 317.223C1085.04 316.481 1084.94 316.05 1084.93 315.618C1084.4 288.194 1081.08 261.065 1076.41 234.072C1076.22 233.009 1076.59 231.58 1077.22 230.691C1080.68 225.815 1084.36 221.096 1087.86 216.243C1090.96 211.928 1093.92 207.509 1097.12 202.894C1098.64 208.785 1098.83 214.299 1097.66 220.14C1094.41 236.237 1094.52 252.337 1098.83 268.332C1099.63 271.291 1099.58 274.526 1099.6 277.635C1099.61 280.249 1099.14 282.866 1098.88 285.48C1097.95 294.872 1095.49 303.797 1090.78 312.032C1089.51 314.245 1088.17 316.39 1085.14 317.223ZM1128.51 52.0262C1128.8 53.4361 1129.11 54.5661 1129.25 55.7162C1129.52 57.7823 1129.76 59.8561 1129.88 61.9342C1130.9 80.1976 1126.13 97.2592 1119.06 113.837C1117.66 117.12 1116.56 117.288 1113.98 114.828C1108.86 109.954 1104.08 104.624 1098.45 100.431C1093.56 96.7876 1092.52 93.0011 1093.89 87.3522C1096.08 78.2818 1098.65 69.4668 1104.85 62.2359C1111.03 55.0322 1119.14 52.2108 1128.51 52.0262ZM1025.58 197.935C1029.04 201.567 1029.72 203.583 1029.8 208.056C1029.85 210.502 1030.04 212.944 1030.15 215.389C1031.15 238.709 1033.55 261.855 1039.04 284.592C1043.24 302.025 1048.74 318.954 1059.11 333.889C1059.41 334.324 1059.8 334.861 1059.78 335.331C1059.48 341.457 1058.79 347.539 1054.51 352.376C1050.92 356.449 1046.19 356.414 1042.85 352.182C1040.91 349.73 1039.24 346.916 1038.08 344.013C1032.27 329.488 1030.06 314.12 1028.16 298.737C1026.51 285.424 1025.24 272.061 1023.95 258.707C1023.36 252.688 1022.58 246.608 1022.86 240.602C1023.39 229.479 1024.69 218.396 1025.54 207.286C1025.78 204.186 1025.58 201.052 1025.58 197.935ZM1128.03 49.1317C1127.33 49.3196 1127.08 49.4138 1126.82 49.4508C1125.84 49.5892 1124.85 49.7035 1123.86 49.838C1114.46 51.1205 1106.67 55.2549 1100.96 62.9623C1094.82 71.2388 1092.51 80.863 1091.25 90.8511C1091.14 91.7246 1090.95 92.5878 1090.8 93.4558C1090.54 93.4525 1090.27 93.4493 1090 93.4471C1089.7 92.273 1089.31 91.1147 1089.11 89.9237C1087.89 82.5104 1086.53 75.1134 1085.56 67.6664C1083.8 54.0835 1082.43 40.4234 1084.33 26.772C1085.04 21.6644 1086.53 16.4485 1088.78 11.8256C1091.82 5.58367 1098.42 4.48961 1103.88 8.70572C1117.16 18.959 1123.6 33.3211 1128.03 49.1317ZM1086.9 90.3021C1081.94 88.5219 1077.1 86.8664 1072.34 85.0203C1071.03 84.5133 1069.64 83.6681 1068.81 82.5817C1064.22 76.6322 1060.05 70.3429 1055.22 64.6025C1051.9 60.6587 1047.82 57.2486 1041.71 59.2259C1041.71 58.7102 1041.68 58.3617 1041.72 58.0191C1041.78 57.3891 1041.86 56.7574 1041.97 56.1355C1043.77 46.4692 1047.66 37.6422 1052.94 29.4186C1058.77 20.3236 1065.71 12.2732 1075.26 6.83668C1081.75 3.13902 1088.53 2.11794 1093.78 3.98746C1087.4 7.8338 1084.5 11.3104 1082.74 18.2956C1081.79 22.0472 1081.18 25.9458 1080.96 29.8096C1080.16 43.6396 1082.24 57.2949 1083.92 70.9572C1084.72 77.4991 1085.91 83.9937 1086.9 90.3021ZM1248.07 173.228C1246.65 172.626 1245.61 171.93 1244.5 171.761C1242.31 171.432 1241.76 170.265 1241.41 168.172C1240.8 164.539 1240.04 160.798 1238.51 157.496C1237.22 154.74 1235.04 152.184 1232.69 150.205C1230.18 148.088 1227.34 149.22 1226.26 152.366C1225.71 153.962 1225.24 155.791 1225.47 157.411C1226.23 162.85 1227.33 168.242 1228.29 173.657C1228.44 174.494 1228.89 175.669 1228.52 176.144C1226.04 179.286 1223.38 182.28 1220.54 185.589C1220.45 184.521 1220.36 183.739 1220.33 182.955C1219.93 174.81 1219.83 166.639 1219.09 158.525C1218.12 147.9 1215.73 137.602 1209.97 128.38C1208.25 125.634 1208.02 125.584 1205.46 127.622C1198.82 132.925 1195.31 140.227 1192.55 148.004C1192.18 149.059 1191.82 150.119 1191.41 151.33C1189.57 149.933 1188.19 148.535 1186.52 147.7C1184.19 146.528 1183.52 144.76 1183.27 142.331C1182.38 133.574 1180.36 125.2 1173.61 118.284C1177.5 116.132 1181.18 114.053 1184.89 112.055C1189.42 109.623 1193.42 106.618 1196.53 102.435C1197.04 101.756 1198.65 101.205 1199.38 101.504C1203.7 103.29 1208.32 104.763 1212.1 107.408C1228.08 118.605 1239.29 133.593 1245.65 152.06C1247.96 158.769 1249.06 165.739 1248.07 173.228ZM732.563 282.97C730.228 282.684 727.863 282.551 725.565 282.084C714.385 279.814 710.16 273.393 712.398 262.237C712.47 261.881 712.514 261.516 712.623 261.173C716.95 247.621 721.257 234.064 725.649 220.535C726.145 219.006 727.019 217.567 727.899 216.204C731.465 210.671 736.208 210.06 740.649 214.908C743.195 217.685 745.409 220.879 747.23 224.185C751.647 232.2 755.604 240.468 760.047 248.467C761.62 251.297 761.886 253.913 761.366 256.982C758.411 274.422 749.161 282.781 732.563 282.97ZM903.825 138.476L904.691 138.468C911.224 158.201 916.129 178.243 917.711 199.106C918.952 215.456 921.197 231.728 922.806 248.055C923.522 255.323 925.782 262.445 924.739 269.891C923.684 277.417 922.01 284.714 917.542 291.034C913.539 296.695 908.284 298.443 901.854 296.466C896.356 294.777 896.224 294.514 897.067 288.762C901.414 259.116 903.501 229.286 903.922 199.348C904.165 182.119 903.874 164.883 903.826 147.65C903.818 144.592 903.825 141.534 903.825 138.476ZM1083.65 319.877C1082.14 328.047 1080.77 336.154 1079.1 344.2C1078.41 347.488 1076.08 348.544 1073.43 346.48C1067.73 342.047 1062.36 337.782 1062.33 328.942C1062.31 318.139 1060.7 307.29 1059.16 296.551C1054.48 263.999 1044.89 232.821 1032.16 202.566C1031.78 201.671 1031.49 200.674 1031.46 199.713C1031.26 194.823 1031.01 189.928 1031.05 185.037C1031.16 168.629 1031.38 152.221 1031.57 135.814C1031.61 132.621 1033.43 131.536 1036.3 133.125C1037.62 133.856 1038.93 134.858 1039.82 136.054C1042.9 140.195 1045.83 144.448 1048.7 148.734C1049.14 149.379 1049.14 150.442 1049.05 151.282C1048.66 155.248 1047.95 159.194 1047.74 163.167C1047.05 176.107 1046.38 189.05 1045.99 202.001C1045.64 213.721 1046.36 225.399 1049.4 236.793C1051.49 244.621 1054.49 246.258 1062.27 244.268C1062.34 244.249 1062.44 244.321 1062.67 244.403C1062.72 244.941 1062.84 245.549 1062.8 246.148C1062.12 258.367 1063.5 270.388 1066.22 282.285C1068.47 292.182 1070.81 302.055 1075.42 311.197C1077.15 314.636 1079.2 317.833 1083.65 319.877ZM1038.33 69.3894C1038.54 70.4252 1038.74 71.461 1038.95 72.4968C1040.72 81.2612 1047.57 87.1382 1056.53 87.4018C1059.6 87.4922 1062.69 87.3179 1065.75 87.0843C1068.03 86.9106 1069.64 87.404 1070.88 89.5905C1077.11 100.526 1083.55 111.345 1089.76 122.292C1090.93 124.361 1091.72 126.772 1092.14 129.122C1093.58 137.14 1094.79 145.198 1096.06 153.246C1096.21 154.208 1096.49 155.412 1096.08 156.151C1093.97 159.968 1091.65 163.669 1089.28 167.6C1086.61 161.792 1084.28 156.3 1081.58 151.001C1076.94 141.881 1071.44 133.307 1062.58 127.678C1055.52 123.197 1056.59 124.195 1054.27 130.473C1052.49 135.268 1051.3 140.278 1049.74 145.518C1045.12 138.341 1040.15 131.763 1031.7 128.042C1033.55 108.703 1032.24 88.675 1038.33 69.3894ZM1145.86 54.0901C1150.84 55.7532 1155.05 57.0422 1159.17 58.5567C1170 62.5343 1180.6 67.0161 1189.43 74.7355C1194.03 78.7664 1197.84 83.4629 1198.09 89.8736C1198.2 92.7511 1197.61 95.8939 1196.39 98.4637C1195.92 99.4565 1192.82 99.2441 1190.91 99.4962C1181.63 100.718 1175.2 105.578 1171.85 114.384C1171.53 115.214 1171.25 116.055 1171 116.741C1156.6 116.577 1149.8 127.903 1141.43 135.727C1136.72 130.666 1132.08 125.731 1127.51 120.725C1126.97 120.128 1126.62 119.177 1126.54 118.353C1125.89 112.038 1126.91 105.894 1128.62 99.8382C1131.69 88.9576 1137.45 79.4335 1143.64 70.1284C1146.78 65.4058 1149.41 60.5945 1145.86 54.0901ZM1161.22 215.856C1160.99 215.905 1160.76 215.954 1160.53 216.003C1160.08 214.683 1159.71 213.327 1159.16 212.055C1158.83 211.3 1158.2 210.677 1157.7 209.995C1157.27 210.688 1156.83 211.376 1156.42 212.076C1156.33 212.227 1156.3 212.419 1156.27 212.597C1152.74 233.226 1149.19 253.85 1145.72 274.488C1144.48 281.874 1143.44 289.294 1142.3 296.699C1142.05 296.88 1141.8 297.062 1141.54 297.243C1139.61 295.326 1137.14 293.713 1135.86 291.427C1133.18 286.637 1130.48 281.687 1128.93 276.463C1120.42 247.804 1115.56 218.412 1111.84 188.797C1111.34 184.837 1112.79 182.056 1114.82 178.975C1115.37 179.684 1115.77 180.287 1116.26 180.797C1119.52 184.181 1122.67 187.699 1126.13 190.865C1128.83 193.333 1129.22 193.083 1130.59 189.779C1131.63 187.268 1132.6 184.728 1133.72 182.255C1136.73 175.601 1139.8 168.976 1143.02 161.973C1146.72 166.437 1150.14 170.294 1153.22 174.404C1154.69 176.359 1156.04 178.684 1156.53 181.032C1158.02 188.209 1159.21 195.458 1160.23 202.719C1160.84 207.059 1160.91 211.474 1161.22 215.856ZM1188.91 276.418L1189.66 276.001C1191.96 278.981 1194.49 281.809 1196.5 284.967C1205.54 299.119 1215.36 312.681 1225.7 325.908C1229.33 330.555 1232.08 336.014 1234.58 341.401C1237.14 346.898 1238.12 352.864 1236.23 358.887C1233.1 368.88 1225.66 373.997 1215.91 375.983C1203.08 378.593 1190.3 377.509 1177.64 374.629C1171.99 373.345 1166.53 371.513 1161.43 368.311C1169.29 354.079 1175.38 339.309 1179.71 323.814C1184.06 308.266 1186.94 292.433 1188.91 276.418ZM965.426 250.009C965.937 248.791 966.379 248.091 966.526 247.334C968.392 237.742 970.847 228.211 971.909 218.529C973.696 202.224 974.292 185.792 975.976 169.474C976.996 159.589 979.024 149.799 980.824 140.009C981.237 137.759 982.574 135.68 983.486 133.522C983.804 133.563 984.122 133.604 984.441 133.644C985.758 139.635 987.558 145.567 988.297 151.628C990.007 165.655 991.437 179.725 992.539 193.812C993.519 206.35 993.69 218.831 991.956 231.462C990.064 245.248 989.957 259.28 989.121 273.209C989.06 274.225 989.406 275.266 989.563 276.294C989.927 276.295 990.29 276.297 990.653 276.299C992.829 270.158 992.869 263.559 994.207 256.606C994.396 257.542 994.522 257.869 994.52 258.195C994.375 277.421 994.343 296.676 991.419 315.72C990.499 321.716 988.557 327.735 986.026 333.258C982.993 339.875 977.138 340.965 971.489 336.318C968.478 333.84 965.627 330.728 963.802 327.315C953.24 307.555 947.648 286.622 950.314 264.01C950.977 258.388 952.584 252.996 955.552 248.111C957.399 245.073 958.935 244.832 961.719 246.988C962.845 247.859 963.929 248.786 965.426 250.009ZM894.714 292.806C893.907 292.365 893.576 292.226 893.291 292.021C892.481 291.439 891.668 290.859 890.897 290.229C880.376 281.628 872.3 270.951 865.016 259.613C864.507 258.819 864.272 257.764 864.173 256.804C862.191 237.502 860.38 218.181 858.254 198.895C856.398 182.069 853.047 165.577 845.887 150.068C845.457 149.136 845.164 147.919 845.366 146.953C847.787 135.432 849.93 123.832 852.985 112.478C854.388 107.263 857.133 102.207 860.174 97.6887C864.173 91.7458 870.369 90.2749 876.44 92.7527C880.529 94.4218 883.83 97.2754 886.033 100.925C890.565 108.435 894.662 116.209 898.886 123.904C901.342 128.378 902.441 133.107 901.703 138.273C901.335 140.858 901.436 143.522 901.459 146.149C901.569 158.753 901.701 171.355 901.869 183.958C902.205 209.106 900.833 234.179 898.469 259.2C897.422 270.282 896.008 281.33 894.714 292.806ZM762.01 248.332C757.606 239.953 753.72 232.175 749.461 224.606C747.161 220.52 744.313 216.728 741.524 212.942C740.53 211.593 739.085 210.493 737.661 209.561C734.24 207.325 730.586 207.657 728.269 211.018C726.036 214.255 724.127 217.874 722.865 221.593C718.259 235.162 713.94 248.829 709.599 262.486C706.827 271.205 710.546 279.401 719.398 282.74C729.983 286.735 740.597 286.103 750.713 280.85C756.558 277.814 759.611 272.459 761.469 266.393C762.464 263.143 763.113 259.788 764.009 256.107C765.808 258.795 767.315 261.343 769.114 263.664C771.216 266.379 773.396 269.078 775.856 271.46C780.766 276.215 786.422 277.997 792.913 274.537C794.132 281.345 795.301 287.877 796.47 294.409C796.802 294.491 797.135 294.573 797.467 294.655C798.316 293.833 799.269 293.095 799.998 292.178C806.1 284.517 809.494 275.58 810.785 266.063C812.37 254.398 813.251 242.628 814.132 230.88C815.408 213.876 816.103 196.807 820.739 180.255C821.497 177.548 822.621 174.944 823.575 172.292C824.001 172.301 824.427 172.31 824.853 172.319C827.459 179.08 830.064 185.842 832.67 192.604C832.996 192.646 833.322 192.689 833.648 192.731C834.711 190.561 835.776 188.391 837.098 185.693C837.472 187.577 837.754 189.005 838.039 190.433C843.066 215.557 850.518 239.806 863.451 262.142C864.665 264.241 864.857 266.966 865.373 269.432C867.901 281.525 870.821 293.489 876.511 304.578C879.683 310.759 883.584 316.404 888.694 321.153C890.644 322.964 891.246 322.805 891.749 320.159C893.255 312.243 894.668 304.31 896.152 296.193C897.74 296.778 899.232 297.392 900.764 297.883C908.453 300.352 915.448 298.023 920.153 291.43C923.514 286.72 924.823 281.268 925.75 275.686C925.839 275.155 925.925 274.623 926.027 274.094C926.037 274.038 926.142 273.999 926.522 273.708C929.269 288.981 932.004 304.088 936.216 318.846L937.279 318.874C937.595 317.856 938.077 316.858 938.204 315.817C940.771 294.753 940.788 273.628 939.002 252.531C936.676 225.061 933.642 197.649 931.52 170.166C930.425 155.997 930.642 141.727 930.266 127.503C930.704 127.396 931.141 127.29 931.579 127.184C932.341 128.97 933.417 130.689 933.813 132.552C935.772 141.771 937.762 150.991 939.345 160.277C942.008 175.901 943.438 191.754 948.135 206.99C949.069 210.017 950.19 212.991 951.344 215.943C951.636 216.688 952.389 217.252 952.931 217.899C953.455 217.224 954.168 216.623 954.474 215.86C957.858 207.398 959.112 198.521 958.979 189.488C958.791 176.703 958.163 163.925 957.983 151.14C957.881 143.883 958.145 136.536 960.739 129.669C962.187 125.837 964.252 122.082 966.751 118.843C970.167 114.419 974.293 114.571 977.507 119.15C979.715 122.294 981.164 125.987 982.79 129.51C983.101 130.185 982.871 131.314 982.52 132.06C976.994 143.821 974.844 156.393 973.73 169.174C972.156 187.238 970.899 205.331 969.272 223.39C968.769 228.969 967.516 234.481 966.566 240.017C966.43 240.81 966.152 241.605 965.797 242.331C964.436 245.122 962.5 245.404 960.318 243.174C958.082 240.888 957.928 240.875 956.11 243.439C948.679 253.925 946.496 265.832 947.187 278.334C948.25 297.554 953.94 315.356 964.658 331.405C966.441 334.075 968.777 336.518 971.288 338.53C977.128 343.208 983.645 342.157 987.03 335.484C989.447 330.719 990.957 325.361 992.089 320.099C995.966 302.094 996.528 283.763 996.543 265.431C996.557 249.195 995.923 232.954 996.198 216.725C996.301 210.647 997.858 204.525 999.296 198.553C1001.39 189.843 1003.94 181.24 1006.39 172.617C1006.84 171.031 1007.71 169.566 1008.39 168.044C1008.68 168.079 1008.97 168.114 1009.25 168.148C1010.45 173.6 1011.57 179.071 1012.88 184.499C1014.93 193.056 1014.51 201.729 1014.63 210.428C1014.85 225.924 1015.68 241.413 1016.28 256.904C1016.33 258.056 1016.6 259.2 1016.85 260.918C1020.14 258.419 1019.27 254.697 1021.06 251.676C1021.62 256.877 1022.04 261.712 1022.69 266.517C1025.54 287.802 1028.11 309.135 1031.55 330.324C1032.63 336.969 1036.03 343.261 1038.59 349.626C1039.28 351.329 1040.62 352.86 1041.94 354.197C1046.03 358.341 1051.38 358.223 1055.35 353.958C1058.66 350.39 1060.12 345.901 1061.29 341.303C1061.54 340.342 1061.72 339.365 1062.01 338.063C1064.02 340.189 1065.77 342.219 1067.71 344.037C1070.09 346.263 1072.67 348.274 1075.09 350.454C1076.67 351.872 1077.64 351.565 1078.65 349.765C1081.77 344.218 1083.4 338.22 1084.16 331.971C1084.57 328.557 1084.63 325.1 1084.96 321.673C1085.03 320.896 1085.38 319.973 1085.92 319.444C1088.15 317.27 1090.95 315.546 1092.71 313.068C1097.7 306.047 1099.71 297.829 1101.04 289.448C1101.58 285.995 1101.94 282.511 1102.45 278.44C1103.81 280.928 1104.88 282.961 1106.02 284.956C1112.22 295.84 1121.12 303.596 1132.77 308.223C1133.73 308.602 1134.53 309.608 1135.18 310.487C1138.94 315.56 1138.5 321.023 1137.37 326.946C1134.86 340.13 1133.05 353.458 1133.45 366.933C1133.58 371.325 1134.16 375.83 1135.37 380.037C1137.46 387.249 1143.07 388.984 1148.95 384.274C1151.94 381.878 1154.3 378.662 1156.81 375.704C1158.03 374.269 1158.94 372.574 1159.7 371.432C1166.14 373.454 1172.22 375.868 1178.52 377.232C1191.09 379.951 1203.89 381.1 1216.51 377.813C1234.54 373.116 1242.52 357.67 1236.24 340.117C1234.85 336.235 1232.96 332.382 1230.59 329.023C1221.96 316.803 1213 304.819 1204.22 292.698C1201.48 288.906 1198.94 284.963 1195.89 280.473C1203.19 283.484 1209.63 282.596 1216.21 279.086C1216.69 289.747 1217.32 300.028 1222.71 309.119C1223.12 309.147 1223.53 309.177 1223.93 309.206C1224.88 306.068 1226.01 302.973 1226.74 299.787C1228.71 291.218 1228.82 282.514 1228.04 273.806C1227.79 270.97 1228.2 268.738 1230.07 266.353C1236.45 258.205 1240.61 248.825 1243.88 239.075C1248.87 224.182 1253.09 209.087 1253.92 193.285C1254.23 187.447 1253.74 181.67 1250.67 176.428C1250.37 175.919 1250.21 175.233 1250.24 174.641C1251.27 152.947 1242.4 135.011 1229.02 118.828C1226.6 115.904 1223.91 113.173 1221.11 110.604C1214.72 104.738 1207.49 100.403 1198.52 99.2893C1203.34 86.5201 1196.64 78.1369 1187.7 70.8537C1178.57 63.4105 1167.64 59.3833 1156.73 55.403C1155.03 54.7828 1153.34 53.9632 1151.58 53.7078C1146.24 52.9339 1143.34 49.6725 1140.77 45.1351C1134.08 33.3259 1125.63 22.7998 1115.88 13.3166C1110.06 7.6563 1103.05 4.18844 1095.42 1.97528C1086.9 -0.493821 1079.11 1.90231 1071.89 6.48927C1063.53 11.7923 1057.11 18.966 1052.06 27.4309C1045.7 38.0877 1040.56 49.2161 1038.71 61.6352C1038.62 62.2494 1038.44 62.8855 1038.15 63.4323C1033.08 73.0445 1031.35 83.508 1030.91 94.1474C1030.43 105.65 1030.61 117.179 1030.44 128.696C1030.42 129.919 1030.27 131.286 1029.71 132.331C1025.83 139.52 1024.09 147.308 1023.83 155.326C1023.5 165.464 1023.77 175.622 1023.78 185.772C1023.78 186.73 1023.78 187.687 1023.78 188.791C1016.81 184.53 1016.81 184.53 1015.35 184.96C1013.81 178.175 1012.79 171.226 1009.29 164.092C1001.66 175.718 998.837 188.16 995.976 200.759C995.976 198.163 995.987 195.565 995.974 192.969C995.96 190.339 995.857 187.708 995.908 185.081C996.108 174.838 996.613 164.592 996.506 154.353C996.404 144.554 994.746 135.023 988.985 126.681C987.84 125.024 986.771 124.003 985.352 126.853C984.808 125.779 984.467 124.956 984 124.212C982.558 121.914 981.292 119.455 979.554 117.401C974.435 111.348 969.308 111.523 964.588 117.937C959.331 125.08 956.622 133.317 956.406 142.057C956.089 154.823 956.408 167.608 956.611 180.383C956.783 191.282 956.408 202.111 953.571 213.794C952.058 211.722 950.441 210.374 949.973 208.705C948.559 203.666 947.375 198.539 946.489 193.379C943.485 175.875 940.896 158.295 937.61 140.845C936.5 134.951 933.822 129.347 931.779 123.64C931.455 122.734 930.701 121.982 930.145 121.159C929.83 121.218 929.516 121.277 929.202 121.336C929.024 123.514 928.76 125.69 928.683 127.871C928.016 146.667 928.796 165.417 930.524 184.134C932.865 209.508 935.46 234.861 937.482 260.26C938.799 276.814 938.766 293.425 936.742 309.967C936.692 310.38 936.591 310.787 936.401 311.799C935.974 310.797 935.688 310.361 935.601 309.889C932.624 293.756 929.37 277.667 926.844 261.463C925.749 254.436 926.244 247.168 925.866 240.018C924.905 221.867 921.958 203.987 918.685 186.132C917.431 179.292 917.293 172.252 916.536 165.315C914.155 143.5 911.721 121.691 909.303 99.8801C909.263 99.5207 909.248 99.1221 909.08 98.8209C908.764 98.2546 908.345 97.7459 907.969 97.2133C907.548 97.7171 906.871 98.1653 906.746 98.7349C905.776 103.16 904.789 107.589 904.051 112.057C903.314 116.522 902.86 121.034 902.184 126.282C901.525 124.749 901.103 123.817 900.721 122.87C897.15 114.013 893.195 105.363 887.03 97.9376C885.933 96.616 884.748 95.3417 883.46 94.2095C875.493 87.2073 866.734 87.5226 859.29 95.1086C854.108 100.392 851.317 107.024 849.619 114.031C847.233 123.875 845.309 133.831 843.148 143.918C841.202 142.123 840.724 143.752 840.151 145.32C836.471 155.391 835.463 165.823 836.393 176.408C836.807 181.124 835.462 185.092 832.883 189.438C832.361 188.196 831.9 187.36 831.654 186.465C830.112 180.876 828.644 175.267 827.078 169.685C826.86 168.909 826.229 168.25 825.789 167.537C825.147 168.114 824.344 168.585 823.889 169.284C819.283 176.348 817.135 184.3 815.859 192.504C814.847 199.013 814.132 205.568 813.181 212.9C812.737 209.42 812.504 206.667 812.017 203.96C811.054 198.605 809.202 193.628 805.218 189.702C802.886 187.404 802.304 187.524 801.171 190.512C796.846 201.904 794.77 213.8 794.158 225.878C793.42 240.446 793.273 255.046 792.99 269.634C792.957 271.311 792.405 272.079 790.96 272.641C788.254 273.694 785.533 273.662 783.059 272.327C780.691 271.049 778.449 269.454 776.389 267.716C774.671 266.268 773.283 264.424 771.776 262.732C766.493 256.8 764.113 250.416 764.401 241.928C765.227 217.552 760.03 193.969 751.95 171.041C749.74 164.772 746.583 158.916 742.153 153.874C740.849 152.39 739.361 151.001 737.744 149.873C734.359 147.512 730.526 147.193 727.362 149.803C724.271 152.352 721.363 155.389 719.194 158.743C712.774 168.669 709.398 179.931 705.876 191.105C703.667 198.112 701.429 205.116 698.943 212.027C698.322 213.754 696.969 215.533 695.456 216.548C693.052 218.162 690.768 217.559 688.998 215.232C687.859 213.734 687.13 211.931 686.148 210.306C682.216 203.803 678.293 197.294 674.273 190.845C673.622 189.799 672.555 188.979 671.585 188.171C666.252 183.73 660.278 184.066 656.163 189.709C648.288 200.507 646.367 212.505 650.24 225.358C652.495 232.84 656.443 239.415 660.901 245.768C663.55 249.54 665.836 253.578 668.141 257.58C669.6 260.112 669.887 262.892 669.054 265.744C668.177 268.742 666.322 270.052 663.326 269.17C661.198 268.543 659.117 267.468 657.27 266.217C650.427 261.583 645.078 255.493 640.22 248.83C636.442 243.649 632.19 238.793 627.888 234.026C626.427 232.407 624.294 231.231 622.257 230.333C618.58 228.711 615.256 229.873 613.059 233.248C612.372 234.302 611.828 235.476 611.393 236.66C610.83 238.189 610.4 239.771 609.987 241.35C607.062 252.527 604.678 254.422 593.235 254.858C590.874 254.948 589.069 254.234 587.49 252.447C584.85 249.458 582.138 246.521 579.3 243.72C572.154 236.671 565.676 235.367 556.54 239.576C543.006 245.811 529.12 251.034 514.797 255.119C499.597 259.454 484.314 260.124 468.831 256.606C444.496 251.077 419.711 249.276 394.87 248.53C356.096 247.365 317.312 246.268 278.525 245.837C240.808 245.417 203.08 245.757 165.358 245.982C141.157 246.126 116.958 246.652 92.7587 247.031C62.942 247.498 33.1249 247.981 3.30884 248.511C2.20081 248.531 1.10266 249.125 0.00012207 249.452C1.14404 249.847 2.29065 250.598 3.43018 250.587C33.1647 250.289 62.8973 249.905 92.6306 249.551C108.948 249.356 125.265 249.106 141.583 249.021C185.472 248.793 229.364 248.65 273.253 248.456C293.564 248.367 313.876 248.042 334.186 248.169C366.916 248.373 399.639 249.183 432.179 253.032C444.221 254.456 456.247 256.379 468.104 258.904C486.96 262.919 505.245 261.314 523.206 254.842C533.349 251.188 543.359 247.167 553.452 243.376C555.737 242.518 558.094 241.815 560.465 241.233C566.187 239.828 571.483 240.888 576.121 244.532C578.538 246.431 580.741 248.605 583.014 250.685C585.287 252.764 587.384 255.064 589.808 256.944C595.179 261.109 600.211 260.708 604.642 255.505C606.717 253.067 608.154 250.044 609.655 247.169C611.291 244.039 612.492 240.677 614.192 237.586C617.455 231.654 622.312 230.902 626.95 235.782C630.247 239.252 633.085 243.162 636.1 246.898C640.933 252.885 645.637 258.981 650.627 264.833C652.11 266.574 654.253 267.859 656.291 268.997C661.543 271.928 666.527 271.198 671.243 267.554C672.81 266.344 673.192 265.196 672.176 263.427C669.15 258.162 666.114 252.897 663.274 247.53C659.717 240.809 655.907 234.17 653.004 227.164C648.588 216.51 650.132 205.985 655.421 195.932C656.132 194.582 657.075 193.318 658.084 192.168C661.533 188.236 665.943 187.447 669.856 190.863C673.143 193.733 675.987 197.279 678.4 200.939C681.234 205.238 683.337 210.015 685.873 214.52C686.797 216.163 687.895 217.769 689.19 219.13C691.574 221.636 694.218 221.701 696.477 219.075C698.225 217.043 699.887 214.719 700.807 212.234C703.862 203.99 706.359 195.538 709.457 187.311C712.744 178.583 716.311 169.948 720.097 161.425C721.392 158.509 723.426 155.77 725.644 153.448C729.827 149.07 735.107 148.951 738.905 153.61C742.298 157.773 745.198 162.507 747.478 167.381C759.254 192.548 763.684 219.165 762.414 246.822C762.404 247.059 762.294 247.291 762.01 248.332Z" fill="#CCCCCC"/>
</svg>
